<?xml version="1.0" encoding="UTF-8"?>
<svg xmlns="http://www.w3.org/2000/svg" xmlns:xlink="http://www.w3.org/1999/xlink"
     width="160" height="65" viewBox="0 0 160 65">
<defs>
</defs>
<rect x="15.918746870954509" y="45.08535323501975" width="2.5505527667658145" height="2.5505527667658145" fill="#2A2018" rx="0.5101105533531629" />
<rect x="19.99963129777981" y="45.08535323501975" width="2.5505527667658145" height="2.5505527667658145" fill="#2A2018" rx="0.5101105533531629" />
<path d="M16.17380214763109,38.45391604142863 L19.234465467750066,38.45391604142863 L19.48952074442665,45.59546378837291 L15.918746870954507,45.59546378837291 Z" fill="#5A6B48" />
<path d="M19.234465467750066,38.45391604142863 L22.295128787869043,38.45391604142863 L22.550184064545626,45.59546378837291 L18.979410191073484,45.59546378837291 Z" fill="#5A6B48" />
<path d="M15.153581040924763,30.292147187778024 L23.31534989457537,30.292147187778024 L23.825460447928535,39.47413714813496 L14.6434704875716,39.47413714813496 Z" fill="#4A3728" />
<path d="M18.21424436104374,30.802257741131186 L20.254686574456393,30.802257741131186 L20.509741851132972,38.45391604142863 L17.95918908436716,38.45391604142863 Z" fill="#B85A3A" />
<rect x="14.89852576424818" y="36.92358438136914" width="8.67187940700377" height="1.0202211067063258" fill="#8A7028" rx="0.25505527667658145" />
<rect x="18.62233280372627" y="36.92358438136914" width="1.224265328047591" height="1.0202211067063258" fill="#B89638" rx="0.15303316600594888" />
<path d="M15.153581040924763,30.802257741131186 L13.113138827512111,31.31236829448435 L12.85808355083553,37.433694934722304 L14.898525764248182,37.94380548807547 Z" fill="#4A3728" />
<circle cx="13.113138827512111" cy="37.94380548807547" r="0.9181989960356932" fill="#E0B88A" />
<path d="M23.31534989457537,30.802257741131186 L25.355792107988023,31.31236829448435 L25.610847384664602,37.433694934722304 L23.570405171251952,37.94380548807547 Z" fill="#4A3728" />
<circle cx="25.355792107988023" cy="37.94380548807547" r="0.9181989960356932" fill="#E0B88A" />
<rect x="18.21424436104374" y="28.25170497436537" width="2.0404422134126516" height="2.5505527667658145" fill="#E0B88A" />
<rect x="16.68391270098425" y="21.875323057450835" width="5.101105533531629" height="5.611216086884792" fill="#E0B88A" rx="1.5303316600594887" ry="1.5303316600594887" />
<rect x="16.938967977660834" y="25.191041654246394" width="4.590994980178467" height="2.2954974900892333" fill="#E0B88A" rx="1.0202211067063258" ry="1.0202211067063258" />
<rect x="16.42885742430767" y="21.365212504097673" width="5.611216086884792" height="2.2444864347539166" fill="#4A3020" rx="1.2752763833829073" ry="1.0202211067063258" />
<rect x="16.428857424307672" y="21.875323057450835" width="1.5303316600594887" height="3.086168847786636" fill="#4A3020" rx="0.5101105533531629" />
<rect x="17.143012199002097" y="23.966776326198804" width="1.3262874387182235" height="0.9181989960356932" fill="#F0EBE0" rx="0.25505527667658145" />
<circle cx="17.704133807690578" cy="24.42587582421665" r="0.357077387347214" fill="#2A1F15" />
<rect x="16.785934811654883" y="23.150599440833744" width="2.0404422134126516" height="0.5101105533531629" fill="#4A3020" rx="0.10202211067063259" />
<rect x="19.99963129777981" y="23.966776326198804" width="1.3262874387182235" height="0.9181989960356932" fill="#F0EBE0" rx="0.25505527667658145" />
<circle cx="20.56075290646829" cy="24.42587582421665" r="0.357077387347214" fill="#2A1F15" />
<rect x="19.642553910432596" y="23.150599440833744" width="2.0404422134126516" height="0.5101105533531629" fill="#4A3020" rx="0.10202211067063259" />
<path d="M19.234465467750066,24.935986377569815 L18.469299637720322,25.95620748427614 L19.48952074442665,25.95620748427614 Z" fill="#C4915A" />
<rect x="18.469299637720322" y="26.61935120363525" width="1.5303316600594887" height="0.357077387347214" fill="#8B5E3C" rx="0.15303316600594888" />
<rect x="34.81794007730702" y="44.953035267872295" width="2.647192819845527" height="2.647192819845527" fill="#2A2018" rx="0.5294385639691054" />
<rect x="39.05344858905986" y="44.953035267872295" width="2.647192819845527" height="2.647192819845527" fill="#2A2018" rx="0.5294385639691054" />
<path d="M35.08265935929157,38.070333936273926 L38.259290743106206,38.070333936273926 L38.52401002509075,45.4824738318414 L34.81794007730702,45.4824738318414 Z" fill="#6B6048" />
<path d="M38.259290743106206,38.070333936273926 L41.43592212692084,38.070333936273926 L41.70064140890539,45.4824738318414 L37.99457146112166,45.4824738318414 Z" fill="#6B6048" />
<path d="M34.023782231353366,29.59931691276824 L42.494799254859046,29.59931691276824 L43.024237818828155,39.129211064212136 L33.49434366738426,39.129211064212136 Z" fill="#4A3728" />
<path d="M37.200413615167996,30.128755476737346 L39.318167871044416,30.128755476737346 L39.58288715302897,38.070333936273926 L36.93569433318344,38.070333936273926 Z" fill="#9B7A5A" />
<rect x="33.75906294936881" y="36.482018244366614" width="9.000455587474791" height="1.0588771279382108" fill="#8A7028" rx="0.2647192819845527" />
<rect x="37.62396446634328" y="36.482018244366614" width="1.2706525535258528" height="1.0588771279382108" fill="#B89638" rx="0.1588315691907316" />
<path d="M34.023782231353366,30.128755476737346 L31.906027975476945,30.65819404070645 L31.64130869349239,37.011456808335716 L33.75906294936881,37.54089537230482 Z" fill="#4A3728" />
<circle cx="31.906027975476945" cy="37.54089537230482" r="0.9529894151443897" fill="#D4A574" />
<path d="M42.494799254859046,30.128755476737346 L44.61255351073547,30.65819404070645 L44.87727279272002,37.011456808335716 L42.7595185368436,37.54089537230482 Z" fill="#4A3728" />
<circle cx="44.61255351073547" cy="37.54089537230482" r="0.9529894151443897" fill="#D4A574" />
<rect x="37.200413615167996" y="27.481562656891818" width="2.1177542558764215" height="2.647192819845527" fill="#D4A574" />
<rect x="35.61209792326068" y="20.863580607278003" width="5.294385639691054" height="5.823824203660159" fill="#D4A574" rx="1.588315691907316" ry="1.588315691907316" />
<rect x="35.87681720524523" y="24.304931273077187" width="4.764947075721948" height="2.382473537860974" fill="#D4A574" rx="1.0588771279382108" ry="1.0588771279382108" />
<rect x="35.34737864127612" y="20.334142043308898" width="5.823824203660159" height="2.329529681464064" fill="#3A2515" rx="1.3235964099227635" ry="1.0588771279382108" />
<rect x="35.34737864127613" y="20.863580607278003" width="1.588315691907316" height="3.203103312013088" fill="#3A2515" rx="0.5294385639691054" />
<rect x="36.08859263083287" y="23.034278719551335" width="1.376540266319674" height="0.9529894151443897" fill="#F0EBE0" rx="0.2647192819845527" />
<circle cx="36.67097505119889" cy="23.510773427123528" r="0.3706069947783737" fill="#2A1F15" />
<rect x="35.7179856360545" y="22.187177017200767" width="2.1177542558764215" height="0.5294385639691054" fill="#3A2515" rx="0.10588771279382109" />
<rect x="39.05344858905986" y="23.034278719551335" width="1.376540266319674" height="0.9529894151443897" fill="#F0EBE0" rx="0.2647192819845527" />
<circle cx="39.63583100942588" cy="23.510773427123528" r="0.3706069947783737" fill="#2A1F15" />
<rect x="38.68284159428149" y="22.187177017200767" width="2.1177542558764215" height="0.5294385639691054" fill="#3A2515" rx="0.10588771279382109" />
<path d="M38.259290743106206,24.040211991092637 L37.46513289715255,25.099089119030847 L38.52401002509076,25.099089119030847 Z" fill="#C4915A" />
<rect x="37.46513289715255" y="25.787359252190683" width="1.588315691907316" height="0.3706069947783737" fill="#8B5E3C" rx="0.1588315691907316" />
<rect x="34.81794007730702" y="20.334142043308894" width="6.88270133159837" height="1.0588771279382108" fill="#6B5030" rx="0.5294385639691054" />
<ellipse cx="38.259290743106206" cy="18.74582635140158" rx="2.9119121018300795" ry="2.1177542558764215" fill="#6B5030" />
<rect x="56.67759239759112" y="46.55163708725628" width="2.5280553216901263" height="2.5280553216901263" fill="#2A2018" rx="0.5056110643380253" />
<rect x="60.72248091229532" y="46.55163708725628" width="2.5280553216901263" height="2.5280553216901263" fill="#2A2018" rx="0.5056110643380253" />
<path d="M56.93039792976013,39.97869325086195 L59.96406431578829,39.97869325086195 L60.2168698479573,47.0572481515943 L56.67759239759113,47.0572481515943 Z" fill="#5A6B48" />
<path d="M59.96406431578828,39.97869325086195 L62.99773070181644,39.97869325086195 L63.25053623398544,47.0572481515943 L59.71125878361927,47.0572481515943 Z" fill="#5A6B48" />
<path d="M55.91917580108408,31.888916221453545 L64.00895283049249,31.888916221453545 L64.51456389483052,40.989915379538 L55.41356473674605,40.989915379538 Z" fill="#2E2820" />
<path d="M58.95284218711223,32.39452728579157 L60.97528644446434,32.39452728579157 L61.22809197663335,39.97869325086195 L58.70003665494322,39.97869325086195 Z" fill="#9B7A5A" />
<rect x="55.666370268915074" y="38.46186005784787" width="8.595388093746429" height="1.0112221286760505" fill="#8A7028" rx="0.25280553216901264" />
<rect x="59.35733103858266" y="38.46186005784787" width="1.2134665544112606" height="1.0112221286760505" fill="#B89638" rx="0.15168331930140758" />
<path d="M55.91917580108408,32.39452728579157 L53.89673154373198,32.900138350129595 L53.64392601156297,38.9674711221859 L55.66637026891507,39.473082186523925 Z" fill="#2E2820" />
<circle cx="53.89673154373198" cy="39.473082186523925" r="0.9100999158084455" fill="#C49060" />
<path d="M64.00895283049249,32.39452728579157 L66.0313970878446,32.900138350129595 L66.2842026200136,38.9674711221859 L64.2617583626615,39.473082186523925 Z" fill="#2E2820" />
<circle cx="66.0313970878446" cy="39.473082186523925" r="0.9100999158084455" fill="#C49060" />
<rect x="58.95284218711223" y="29.866471964101443" width="2.022444257352101" height="2.5280553216901263" fill="#C49060" />
<rect x="57.43600899409816" y="23.54633365987613" width="5.0561106433802525" height="5.561721707718278" fill="#C49060" rx="1.516833193014076" ry="1.516833193014076" />
<rect x="57.68881452626717" y="26.832805578073295" width="4.550499579042228" height="2.275249789521114" fill="#C49060" rx="1.0112221286760505" ry="1.0112221286760505" />
<rect x="57.183203461929146" y="23.040722595538103" width="5.561721707718278" height="2.224688683087311" fill="#3A2515" rx="1.2640276608450631" ry="1.0112221286760505" />
<rect x="57.183203461929146" y="23.54633365987613" width="1.516833193014076" height="3.058946939245053" fill="#3A2515" rx="0.5056110643380253" />
<rect x="57.89105895200238" y="25.619339023662032" width="1.3145887672788659" height="0.9100999158084455" fill="#F0EBE0" rx="0.25280553216901264" />
<circle cx="58.447231122774205" cy="26.074388981566255" r="0.35392774503661767" fill="#2A1F15" />
<rect x="57.53713120696576" y="24.810361320721192" width="2.022444257352101" height="0.5056110643380253" fill="#3A2515" rx="0.10112221286760506" />
<rect x="60.722480912295325" y="25.619339023662032" width="1.3145887672788659" height="0.9100999158084455" fill="#F0EBE0" rx="0.25280553216901264" />
<circle cx="61.27865308306715" cy="26.074388981566255" r="0.35392774503661767" fill="#2A1F15" />
<rect x="60.3685531672587" y="24.810361320721192" width="2.022444257352101" height="0.5056110643380253" fill="#3A2515" rx="0.10112221286760506" />
<path d="M59.964064315788285,26.58000004590428 L59.205647719281245,27.59122217458033 L60.2168698479573,27.59122217458033 Z" fill="#C4915A" />
<rect x="59.205647719281245" y="28.248516558219762" width="1.516833193014076" height="0.35392774503661767" fill="#8B5E3C" rx="0.15168331930140758" />
<rect x="56.67759239759112" y="23.040722595538103" width="6.572943836394328" height="1.0112221286760505" fill="#5A4228" rx="0.5056110643380253" />
<ellipse cx="59.964064315788285" cy="21.523889402524027" rx="2.780860853859139" ry="2.022444257352101" fill="#5A4228" />
<rect x="76.48039698933698" y="47.070106421295584" width="2.515760245186365" height="2.515760245186365" fill="#2A2018" rx="0.5031520490372731" />
<rect x="80.50561338163516" y="47.070106421295584" width="2.515760245186365" height="2.515760245186365" fill="#2A2018" rx="0.5031520490372731" />
<path d="M76.73197301385561,40.52912978381103 L79.75088530807925,40.52912978381103 L80.00246133259789,47.57325847033285 L76.48039698933697,47.57325847033285 Z" fill="#6B6048" />
<path d="M79.75088530807925,40.52912978381103 L82.76979760230289,40.52912978381103 L83.02137362682153,47.57325847033285 L79.4993092835606,47.57325847033285 Z" fill="#6B6048" />
<path d="M75.72566891578106,32.47869699921466 L83.77610170037744,32.47869699921466 L84.2792537494147,41.53543388188558 L75.22251686674379,41.53543388188558 Z" fill="#3A4550" />
<path d="M78.7445812100047,32.98184904825194 L80.7571894061538,32.98184904825194 L81.00876543067243,40.52912978381103 L78.49300518548607,40.52912978381103 Z" fill="#6A7B5A" />
<rect x="75.47409289126243" y="39.01967363669921" width="8.553584833633643" height="1.0063040980745461" fill="#8A7028" rx="0.25157602451863653" />
<rect x="79.14710284923451" y="39.01967363669921" width="1.2075649176894554" height="1.0063040980745461" fill="#B89638" rx="0.15094561471118192" />
<path d="M75.72566891578106,32.98184904825194 L73.71306071963197,33.48500109728921 L73.46148469511333,39.522825685736485 L75.47409289126242,40.02597773477376 Z" fill="#3A4550" />
<circle cx="73.71306071963197" cy="40.02597773477376" r="0.9056736882670915" fill="#C49060" />
<path d="M83.77610170037744,32.98184904825194 L85.78870989652653,33.48500109728921 L86.04028592104517,39.522825685736485 L84.02767772489608,40.02597773477376 Z" fill="#3A4550" />
<circle cx="85.78870989652653" cy="40.02597773477376" r="0.9056736882670915" fill="#C49060" />
<rect x="78.7445812100047" y="30.46608880306557" width="2.0126081961490923" height="2.515760245186365" fill="#C49060" />
<rect x="77.23512506289288" y="24.176688190099657" width="5.03152049037273" height="5.534672539410003" fill="#C49060" rx="1.5094561471118193" ry="1.5094561471118193" />
<rect x="77.48670108741152" y="27.44717650884193" width="4.5283684413354575" height="2.2641842206677287" fill="#C49060" rx="1.0063040980745461" ry="1.0063040980745461" />
<rect x="76.98354903837424" y="23.673536141062385" width="5.534672539410003" height="2.2138690157640015" fill="#3A2515" rx="1.2578801225931826" ry="1.0063040980745461" />
<rect x="81.00876543067243" y="24.176688190099657" width="1.5094561471118193" height="3.044069896675502" fill="#3A2515" rx="0.5031520490372731" />
<rect x="77.68796190702642" y="26.239611591152475" width="1.30819532749691" height="0.9056736882670915" fill="#F0EBE0" rx="0.25157602451863653" />
<circle cx="78.44268998058233" cy="26.69244843528602" r="0.3522064343260911" fill="#2A1F15" />
<rect x="77.33575547270033" y="25.43456831269284" width="2.0126081961490923" height="0.5031520490372731" fill="#3A2515" rx="0.10063040980745462" />
<rect x="80.50561338163516" y="26.239611591152475" width="1.30819532749691" height="0.9056736882670915" fill="#F0EBE0" rx="0.25157602451863653" />
<circle cx="81.26034145519107" cy="26.69244843528602" r="0.3522064343260911" fill="#2A1F15" />
<rect x="80.15340694730907" y="25.43456831269284" width="2.0126081961490923" height="0.5031520490372731" fill="#3A2515" rx="0.10063040980745462" />
<path d="M79.75088530807925,27.195600484323297 L80.50561338163516,28.20190458239784 L79.4993092835606,28.20190458239784 Z" fill="#C4915A" />
<rect x="78.99615723452334" y="28.856002246146296" width="1.5094561471118193" height="0.3522064343260911" fill="#8B5E3C" rx="0.15094561471118192" />
<rect x="96.79569130560297" y="43.11649191792908" width="2.510020283695181" height="2.510020283695181" fill="#2A2018" rx="0.5020040567390363" />
<rect x="100.81172375951526" y="43.11649191792908" width="2.510020283695181" height="2.510020283695181" fill="#2A2018" rx="0.5020040567390363" />
<path d="M97.0466933339725,36.59043918032161 L100.05871767440671,36.59043918032161 L100.30971970277623,43.618495974668114 L96.79569130560297,43.618495974668114 Z" fill="#4A5540" />
<path d="M100.05871767440671,36.59043918032161 L103.07074201484092,36.59043918032161 L103.32174404321044,43.618495974668114 L99.80771564603718,43.618495974668114 Z" fill="#4A5540" />
<path d="M96.04268522049442,28.55837427249703 L104.074750128319,28.55837427249703 L104.57675418505804,37.59444729379968 L95.54068116375538,37.59444729379968 Z" fill="#3A4550" />
<path d="M99.05470956092863,29.060378329236066 L101.06272578788479,29.060378329236066 L101.3137278162543,36.59043918032161 L98.80370753255912,36.59043918032161 Z" fill="#8B6B4A" />
<rect x="95.7916831921249" y="35.0844270101045" width="8.534068964563616" height="1.0040081134780725" fill="#8A7028" rx="0.2510020283695181" />
<rect x="99.45631280631986" y="35.0844270101045" width="1.204809736173687" height="1.0040081134780725" fill="#B89638" rx="0.15060121702171086" />
<path d="M96.04268522049442,29.060378329236066 L94.03466899353828,29.562382385975102 L93.78366696516876,35.58643106684354 L95.7916831921249,36.08843512358257 Z" fill="#3A4550" />
<circle cx="94.03466899353828" cy="36.08843512358257" r="0.9036073021302653" fill="#C49060" />
<path d="M104.074750128319,29.060378329236066 L106.08276635527514,29.562382385975102 L106.33376838364465,35.58643106684354 L104.32575215668851,36.08843512358257 Z" fill="#3A4550" />
<circle cx="106.08276635527514" cy="36.08843512358257" r="0.9036073021302653" fill="#C49060" />
<rect x="99.05470956092863" y="26.550358045540882" width="2.008016226956145" height="2.510020283695181" fill="#C49060" />
<rect x="97.54869739071152" y="20.27530733630293" width="5.020040567390362" height="5.522044624129399" fill="#C49060" rx="1.5060121702171088" ry="1.5060121702171088" />
<rect x="97.79969941908105" y="23.538333705106666" width="4.518036510651326" height="2.259018255325663" fill="#C49060" rx="1.0040081134780725" ry="1.0040081134780725" />
<rect x="97.29769536234201" y="19.773303279563894" width="5.522044624129398" height="2.20881784965176" fill="#2E1C10" rx="1.2550101418475905" ry="1.0040081134780725" />
<rect x="97.29769536234201" y="20.27530733630293" width="1.5060121702171088" height="3.0371245432711698" fill="#2E1C10" rx="0.5020040567390363" />
<rect x="98.00050104177666" y="22.333523968932976" width="1.3052105475214943" height="0.9036073021302653" fill="#F0EBE0" rx="0.2510020283695181" />
<circle cx="98.55270550418959" cy="22.78532761999811" r="0.35140283971732533" fill="#2A1F15" />
<rect x="97.64909820205932" y="21.530317478150522" width="2.008016226956145" height="0.5020040567390363" fill="#2E1C10" rx="0.10040081134780726" />
<rect x="100.81172375951527" y="22.333523968932976" width="1.3052105475214943" height="0.9036073021302653" fill="#F0EBE0" rx="0.2510020283695181" />
<circle cx="101.3639282219282" cy="22.78532761999811" r="0.35140283971732533" fill="#2A1F15" />
<rect x="100.46032091979794" y="21.530317478150522" width="2.008016226956145" height="0.5020040567390363" fill="#2E1C10" rx="0.10040081134780726" />
<path d="M100.05871767440671,23.28733167673715 L99.30571158929816,24.291339790215222 L100.30971970277622,24.291339790215222 Z" fill="#C4915A" />
<rect x="99.30571158929816" y="24.943945063975967" width="1.5060121702171088" height="0.35140283971732533" fill="#8B5E3C" rx="0.15060121702171086" />
<rect x="116.52588396397829" y="44.503404349147566" width="2.6173103007785814" height="2.6173103007785814" fill="#2A2018" rx="0.5234620601557163" />
<rect x="120.71358044522401" y="44.503404349147566" width="2.6173103007785814" height="2.6173103007785814" fill="#2A2018" rx="0.5234620601557163" />
<path d="M116.78761499405613,37.69839756712326 L119.92838735499043,37.69839756712326 L120.19011838506829,45.02686640930328 L116.52588396397827,45.02686640930328 Z" fill="#6B6048" />
<path d="M119.92838735499043,37.69839756712326 L123.06915971592474,37.69839756712326 L123.3308907460026,45.02686640930328 L119.66665632491258,45.02686640930328 Z" fill="#6B6048" />
<path d="M115.74069087374471,29.323004604631794 L124.11608383623616,29.323004604631794 L124.63954589639188,38.74532168743469 L115.21722881358899,38.74532168743469 Z" fill="#3A4550" />
<path d="M118.881463234679,29.846466664787513 L120.97531147530187,29.846466664787513 L121.23704250537972,37.69839756712326 L118.61973220460115,37.69839756712326 Z" fill="#B85A3A" />
<rect x="115.47895984366684" y="36.128011386656105" width="8.898855022647176" height="1.0469241203114326" fill="#8A7028" rx="0.26173103007785814" />
<rect x="119.30023288280357" y="36.128011386656105" width="1.256308944373719" height="1.0469241203114326" fill="#B89638" rx="0.15703861804671487" />
<path d="M115.74069087374471,29.846466664787513 L113.64684263312185,30.36992872494323 L113.38511160304398,36.65147344681182 L115.47895984366686,37.17493550696754 Z" fill="#3A4550" />
<circle cx="113.64684263312185" cy="37.17493550696754" r="0.9422317082802893" fill="#D4A574" />
<path d="M124.11608383623616,29.846466664787513 L126.20993207685902,30.36992872494323 L126.47166310693689,36.65147344681182 L124.37781486631401,37.17493550696754 Z" fill="#3A4550" />
<circle cx="126.20993207685902" cy="37.17493550696754" r="0.9422317082802893" fill="#D4A574" />
<rect x="118.881463234679" y="27.22915636400893" width="2.093848240622865" height="2.6173103007785814" fill="#D4A574" />
<rect x="117.31107705421185" y="20.685880612062476" width="5.234620601557163" height="5.758082661712879" fill="#D4A574" rx="1.5703861804671488" ry="1.5703861804671488" />
<rect x="117.5728080842897" y="24.08838400307463" width="4.7111585414014465" height="2.3555792707007233" fill="#D4A574" rx="1.0469241203114326" ry="1.0469241203114326" />
<rect x="117.049346024134" y="20.16241855190676" width="5.758082661712879" height="2.3032330646851515" fill="#3A2515" rx="1.3086551503892907" ry="1.0469241203114326" />
<rect x="121.23704250537972" y="20.685880612062476" width="1.5703861804671488" height="3.1669454639420835" fill="#3A2515" rx="0.5234620601557163" />
<rect x="117.78219290835199" y="22.832075058700912" width="1.3610013564048624" height="0.9422317082802893" fill="#F0EBE0" rx="0.26173103007785814" />
<circle cx="118.56738599858556" cy="23.303190912841057" r="0.36642344210900135" fill="#2A1F15" />
<rect x="117.41576946624299" y="21.994535762451765" width="2.093848240622865" height="0.5234620601557163" fill="#3A2515" rx="0.10469241203114327" />
<rect x="120.71358044522401" y="22.832075058700912" width="1.3610013564048624" height="0.9422317082802893" fill="#F0EBE0" rx="0.26173103007785814" />
<circle cx="121.49877353545759" cy="23.303190912841057" r="0.36642344210900135" fill="#2A1F15" />
<rect x="120.34715700311502" y="21.994535762451765" width="2.093848240622865" height="0.5234620601557163" fill="#3A2515" rx="0.10469241203114327" />
<path d="M119.92838735499043,23.826652972996772 L120.71358044522401,24.873577093308207 L119.66665632491258,24.873577093308207 Z" fill="#C4915A" />
<rect x="119.14319426475686" y="25.554077771510634" width="1.5703861804671488" height="0.36642344210900135" fill="#8B5E3C" rx="0.15703861804671487" />
<rect x="116.26415293390042" y="20.16241855190676" width="7.328468842180028" height="1.0469241203114326" fill="#6B5030" rx="0.5234620601557163" />
<rect x="117.31107705421185" y="16.23645310073889" width="5.234620601557163" height="4.18769648124573" fill="#6B5030" rx="0.7851930902335744" ry="0.5234620601557163" />
<rect x="117.31107705421185" y="18.85376340151747" width="5.234620601557163" height="0.6281544721868595" fill="#B89638" rx="0.15703861804671487" />
<rect x="136.4761219900715" y="46.92927456447988" width="2.509003780608797" height="2.509003780608797" fill="#2A2018" rx="0.5018007561217595" />
<rect x="140.49052803904559" y="46.92927456447988" width="2.509003780608797" height="2.509003780608797" fill="#2A2018" rx="0.5018007561217595" />
<path d="M136.72702236813237,40.405864734897015 L139.73782690486294,40.405864734897015 L139.9887272829238,47.43107532060165 L136.4761219900715,47.43107532060165 Z" fill="#5A6B48" />
<path d="M139.73782690486294,40.405864734897015 L142.74863144159352,40.405864734897015 L142.99953181965438,47.43107532060165 L139.48692652680208,47.43107532060165 Z" fill="#5A6B48" />
<path d="M135.72342085588886,32.37705263694886 L143.75223295383702,32.37705263694886 L144.25403370995878,41.409466247140536 L135.2216200997671,41.409466247140536 Z" fill="#4A3728" />
<path d="M138.73422539261944,32.87885339307062 L140.74142841710645,32.87885339307062 L140.99232879516734,40.405864734897015 L138.48332501455855,40.405864734897015 Z" fill="#9B7A5A" />
<rect x="135.472520477828" y="38.900462466531735" width="8.530612854069911" height="1.003601512243519" fill="#8A7028" rx="0.2509003780608797" />
<rect x="139.13566599751684" y="38.900462466531735" width="1.2043218146922225" height="1.003601512243519" fill="#B89638" rx="0.15054022683652782" />
<path d="M135.72342085588886,32.87885339307062 L133.71621783140182,33.38065414919238 L133.46531745334093,39.402263222653495 L135.47252047782797,39.904063978775255 Z" fill="#4A3728" />
<circle cx="133.71621783140182" cy="39.904063978775255" r="0.9032413610191671" fill="#C49060" />
<path d="M143.75223295383702,32.87885339307062 L145.75943597832406,33.38065414919238 L146.01033635638495,39.402263222653495 L144.0031333318979,39.904063978775255 Z" fill="#4A3728" />
<circle cx="145.75943597832406" cy="39.904063978775255" r="0.9032413610191671" fill="#C49060" />
<rect x="138.73422539261944" y="30.369849612461824" width="2.007203024487038" height="2.509003780608797" fill="#C49060" />
<rect x="137.22882312425415" y="24.09734016093983" width="5.018007561217594" height="5.519808317339354" fill="#C49060" rx="1.5054022683652784" ry="1.5054022683652784" />
<rect x="137.479723502315" y="27.359045075731267" width="4.516206805095835" height="2.2581034025479174" fill="#C49060" rx="1.003601512243519" ry="1.003601512243519" />
<rect x="136.97792274619326" y="23.59553940481807" width="5.519808317339353" height="2.2079233269357417" fill="#3A2515" rx="1.2545018903043985" ry="1.003601512243519" />
<rect x="136.97792274619326" y="24.09734016093983" width="1.5054022683652784" height="3.0358945745366452" fill="#3A2515" rx="0.5018007561217595" />
<rect x="137.6804438047637" y="26.15472326103904" width="1.3046819659165747" height="0.9032413610191671" fill="#F0EBE0" rx="0.2509003780608797" />
<circle cx="138.23242463649765" cy="26.606343941548626" r="0.3512605292852316" fill="#2A1F15" />
<rect x="137.3291832754785" y="25.35184205124423" width="2.007203024487038" height="0.5018007561217595" fill="#3A2515" rx="0.10036015122435189" />
<rect x="140.49052803904559" y="26.15472326103904" width="1.3046819659165747" height="0.9032413610191671" fill="#F0EBE0" rx="0.2509003780608797" />
<circle cx="141.04250887077953" cy="26.606343941548626" r="0.3512605292852316" fill="#2A1F15" />
<rect x="140.13926750976037" y="25.35184205124423" width="2.007203024487038" height="0.5018007561217595" fill="#3A2515" rx="0.10036015122435189" />
<path d="M139.73782690486294,27.108144697670387 L138.9851257706803,28.111746209913903 L139.98872728292383,28.111746209913903 Z" fill="#C4915A" />
<rect x="138.9851257706803" y="28.764087192872193" width="1.5054022683652784" height="0.3512605292852316" fill="#8B5E3C" rx="0.15054022683652782" />
<ellipse cx="138.9851257706803" cy="22.84283827063543" rx="3.5126052928523164" ry="1.5054022683652784" fill="#7A5E3E" />
</svg>